HIERARCHY
ROOT Hips
{
	OFFSET 49.996700 -10.251515 94.276802
	CHANNELS 6 Xposition Yposition Zposition Xrotation Yrotation Zrotation
	JOINT spine
	{
		OFFSET 0.000000 -0.448574 7.800591
		CHANNELS 3 Xrotation Yrotation Zrotation
		JOINT spine1
		{
			OFFSET 0.000000 -0.000002 10.136398
			CHANNELS 3 Xrotation Yrotation Zrotation
			JOINT spine2
			{
				OFFSET 0.000000 -0.000002 9.712509
				CHANNELS 3 Xrotation Yrotation Zrotation
				JOINT Neck
				{
					OFFSET 0.000000 -1.188873 24.936096
					CHANNELS 3 Xrotation Yrotation Zrotation
					JOINT Head
					{
						OFFSET 0.000000 -0.000001 7.533844
						CHANNELS 3 Xrotation Yrotation Zrotation
						End Site
						{
							OFFSET 0.000000 6.014017 18.236099
						}
					}
				}
				JOINT RightShoulder
				{
					OFFSET -4.089649 0.569455 10.488800
					CHANNELS 3 Xrotation Yrotation Zrotation
					JOINT RightArm
					{
						OFFSET 0.000000 -0.000002 13.757004
						CHANNELS 3 Xrotation Yrotation Zrotation
						JOINT RightArmRoll
						{
							OFFSET 0.000000 -0.000001 6.944778
							CHANNELS 3 Xrotation Yrotation Zrotation
							JOINT RightForeArm
							{
								OFFSET 0.000000 -0.000004 20.227692
								CHANNELS 3 Xrotation Yrotation Zrotation
								JOINT RightForeArmRoll
								{
									OFFSET 0.000000 -0.000001 7.793121
									CHANNELS 3 Xrotation Yrotation Zrotation
									JOINT RightHand
									{
										OFFSET 0.000000 -0.000003 15.639099
										CHANNELS 3 Xrotation Yrotation Zrotation
										End Site
										{
											OFFSET 0.000000 0.000000 0.100006
										}
									}
								}
							}
						}
					}
				}
				JOINT LeftShoulder
				{
					OFFSET 4.089649 0.569455 10.488800
					CHANNELS 3 Xrotation Yrotation Zrotation
					JOINT LeftArm
					{
						OFFSET 0.000000 -0.000002 13.757004
						CHANNELS 3 Xrotation Yrotation Zrotation
						JOINT LeftArmRoll
						{
							OFFSET 0.000000 -0.000001 6.944778
							CHANNELS 3 Xrotation Yrotation Zrotation
							JOINT LeftForeArm
							{
								OFFSET 0.000000 -0.000004 20.227692
								CHANNELS 3 Xrotation Yrotation Zrotation
								JOINT LeftForeArmRoll
								{
									OFFSET 0.000000 -0.000001 7.793121
									CHANNELS 3 Xrotation Yrotation Zrotation
									JOINT LeftHand
									{
										OFFSET 0.000000 -0.000003 15.639099
										CHANNELS 3 Xrotation Yrotation Zrotation
										End Site
										{
											OFFSET 0.000000 0.000000 0.100006
										}
									}
								}
							}
						}
					}
				}
			}
		}
	}
	JOINT RightUpLeg
	{
		OFFSET -6.914150 1.063581 -1.267883
		CHANNELS 3 Xrotation Yrotation Zrotation
		JOINT RightUpLegRoll
		{
			OFFSET 0.000000 -0.000003 18.337799
			CHANNELS 3 Xrotation Yrotation Zrotation
			JOINT RightLeg
			{
				OFFSET 0.000000 0.000004 -22.708504
				CHANNELS 3 Xrotation Yrotation Zrotation
				JOINT RightLegRoll
				{
					OFFSET 0.000000 -0.000004 22.782799
					CHANNELS 3 Xrotation Yrotation Zrotation
					JOINT RightFoot
					{
						OFFSET 0.000000 -0.000003 18.962898
						CHANNELS 3 Xrotation Yrotation Zrotation
						JOINT RightToeBase
						{
							OFFSET 0.000000 -0.000003 15.852005
							CHANNELS 3 Xrotation Yrotation Zrotation
							End Site
							{
								OFFSET 0.006718 0.884892 7.677017
							}
						}
					}
				}
			}
		}
	}
	JOINT LeftUpLeg
	{
		OFFSET 6.914150 1.063581 -1.267883
		CHANNELS 3 Xrotation Yrotation Zrotation
		JOINT LeftUpLegRoll
		{
			OFFSET 0.000000 -0.000003 18.337898
			CHANNELS 3 Xrotation Yrotation Zrotation
			JOINT LeftLeg
			{
				OFFSET 0.000000 -0.000004 22.708405
				CHANNELS 3 Xrotation Yrotation Zrotation
				JOINT LeftLegRoll
				{
					OFFSET 0.000000 -0.000004 22.993393
					CHANNELS 3 Xrotation Yrotation Zrotation
					JOINT LeftFoot
					{
						OFFSET 0.000000 -0.000003 18.752197
						CHANNELS 3 Xrotation Yrotation Zrotation
						JOINT LeftToeBase
						{
							OFFSET 0.000000 -0.000003 15.852005
							CHANNELS 3 Xrotation Yrotation Zrotation
							End Site
							{
								OFFSET -0.030113 0.884892 7.677017
							}
						}
					}
				}
			}
		}
	}
}
MOTION
Frames: 8
Frame Time: 0.041667
53.824902 -18.221317 109.327003 1.351593 0.517957 0.612536 -0.059160 0.227240 0.058589 3.884283 0.454893 0.115134 5.529396 0.456240 0.109677 6.590581 13.640483 -3.375592 -7.085050 -15.766483 -4.103847 -16.957936 -63.901843 -20.099843 217.053112 -79.500861 209.644064 -0.000000 0.000019 0.000001 63.848882 -6.805224 2.152074 0.000005 -0.000006 -2.999991 -5.000180 -7.998725 0.000163 -17.305300 63.531626 20.495130 6.113652 107.016230 -13.103653 0.000002 0.000000 -0.000002 41.544274 6.708396 -0.214802 -0.000001 -0.000005 3.000011 -5.000155 7.999940 -0.000042 -28.590504 179.836682 2.960497 -179.999991 0.000005 -1.210004 124.792638 -1.554555 -2.550917 -0.000006 -0.000004 0.746745 67.256436 6.765479 2.559512 25.456964 -7.355618 0.000002 -28.839910 -182.904611 -3.023998 -0.000004 -0.000004 -1.576640 -67.585699 0.370037 2.084413 -0.000001 -0.000000 -1.168651 68.087615 -6.914777 -2.142879 25.456957 7.355618 0.000000 
53.848602 -18.311020 109.181007 1.284758 0.552191 0.634985 -0.045318 0.225705 0.058215 3.911972 0.451835 0.114345 5.557074 0.453173 0.108925 6.495973 13.637307 -3.358553 -7.024051 -15.798962 -4.088306 -16.956829 -63.887691 -20.098315 217.674809 -79.264420 210.293793 -0.000001 0.000018 0.000000 63.711615 -6.856841 2.187579 0.000003 -0.000005 -2.999988 -5.000179 -7.998725 0.000161 -17.367433 63.468823 20.566313 6.715971 107.146824 -13.610824 -0.000001 -0.000001 -0.000001 41.571321 6.756945 -0.227311 -0.000001 -0.000005 3.000011 -5.000156 7.999940 -0.000043 -27.970460 179.752698 2.797457 -179.999991 0.000005 -1.193994 126.270062 -1.699384 -2.561367 -0.000004 -0.000003 0.724805 67.232052 6.761009 2.571907 25.456967 -7.355619 0.000002 -28.316837 -183.001887 -2.845562 -0.000003 -0.000004 -1.546940 -66.204757 0.645804 2.208736 -0.000002 -0.000000 -1.130210 68.214014 -6.907787 -2.154408 25.456962 7.355616 -0.000002 
53.789398 -18.325714 108.974007 1.216181 0.586347 0.657233 -0.031291 0.223876 0.057867 3.940031 0.448191 0.113612 5.585133 0.449520 0.108236 6.405499 13.636071 -3.341750 -6.967645 -15.830987 -4.073366 -16.953534 -63.874010 -20.094265 218.223806 -79.027474 210.883634 -0.000003 0.000019 0.000000 63.562423 -6.911421 2.223786 0.000002 -0.000006 -2.999990 -5.000177 -7.998724 0.000162 -17.421273 63.409482 20.628051 7.303784 107.277936 -14.109822 0.000000 -0.000001 0.000001 41.589053 6.803147 -0.239253 -0.000002 -0.000004 3.000011 -5.000154 7.999938 -0.000042 -27.346768 179.669574 2.633184 -179.999991 0.000005 -1.178995 127.751544 -1.837769 -2.564620 -0.000003 -0.000003 0.703246 67.204875 6.756588 2.584284 25.456967 -7.355618 0.000001 -27.790182 -183.100720 -2.671007 -0.000006 -0.000004 -1.517650 -64.819848 0.921301 2.323484 -0.000004 -0.000000 -1.092040 68.340148 -6.901177 -2.164948 25.456955 7.355617 -0.000002 
53.745304 -18.362514 108.788994 1.146997 0.619942 0.679660 -0.017371 0.221923 0.057506 3.967880 0.444296 0.112859 5.612981 0.445616 0.107529 6.319192 13.635491 -3.325371 -6.915897 -15.861456 -4.059147 -16.949229 -63.862801 -20.089104 218.713258 -78.792543 211.425036 -0.000002 0.000018 0.000000 63.402672 -6.968679 2.260525 0.000004 -0.000005 -2.999989 -5.000182 -7.998727 0.000162 -17.467796 63.353495 20.681492 7.874691 107.408379 -14.597567 0.000001 0.000000 -0.000000 41.597105 6.847486 -0.250783 -0.000001 -0.000005 3.000011 -5.000157 7.999939 -0.000042 -26.723533 179.586451 2.468553 -179.999991 0.000005 -1.163996 129.230034 -1.969938 -2.560898 -0.000001 -0.000003 0.682047 67.175238 6.752322 2.596542 25.456965 -7.355617 0.000002 -27.264187 -183.199184 -2.500512 -0.000006 -0.000005 -1.488841 -63.437554 1.195619 2.427819 -0.000003 0.000000 -1.054270 68.465844 -6.894958 -2.174805 25.456960 7.355615 -0.000002 
53.721104 -18.414120 108.683990 1.078340 0.652489 0.702640 -0.003846 0.220014 0.057095 3.994929 0.440488 0.112008 5.640028 0.441799 0.106723 6.237085 13.634077 -3.309634 -6.868835 -15.889289 -4.045762 -16.944986 -63.856012 -20.084072 219.156482 -78.562325 211.929650 0.000002 0.000017 0.000000 63.233939 -7.028254 2.297753 0.000000 -0.000006 -2.999990 -5.000180 -7.998724 0.000160 -17.507858 63.300472 20.727543 8.425979 107.537872 -15.070664 0.000000 0.000000 0.000001 41.594916 6.890470 -0.262021 -0.000003 -0.000005 3.000012 -5.000154 7.999941 -0.000042 -26.104727 179.505199 2.303044 -179.999991 0.000005 -1.148997 130.698511 -2.094436 -2.550125 -0.000002 -0.000003 0.661187 67.143854 6.748213 2.608335 25.456965 -7.355617 0.000002 -26.743362 -183.297115 -2.333153 -0.000006 -0.000004 -1.460550 -62.064836 1.467699 2.521087 -0.000001 0.000000 -1.017030 68.591082 -6.889231 -2.183303 25.456959 7.355616 -0.000001 
53.751099 -18.453918 108.467995 1.011371 0.683507 0.726540 0.008984 0.218319 0.056595 4.020587 0.437106 0.110978 5.665686 0.438404 0.105735 6.159228 13.630642 -3.294747 -6.826551 -15.913490 -4.033365 -16.942049 -63.855746 -20.080635 219.565843 -78.339305 212.408105 -0.000002 0.000018 -0.000000 63.057481 -7.089845 2.335295 0.000004 -0.000006 -2.999990 -5.000181 -7.998725 0.000162 -17.542340 63.250175 20.767231 8.955999 107.664197 -15.526861 -0.000001 0.000000 -0.000001 41.582024 6.932607 -0.273140 -0.000000 -0.000004 3.000011 -5.000153 7.999940 -0.000041 -25.494656 179.425012 2.137480 -179.999991 0.000005 -1.134995 132.149885 -2.211184 -2.532800 -0.000003 -0.000003 0.640646 67.111287 6.744278 2.619833 25.456964 -7.355618 0.000001 -26.232127 -183.391686 -2.169351 -0.000006 -0.000004 -1.432871 -60.708374 1.736423 2.602799 -0.000003 -0.000000 -0.980464 68.715788 -6.883986 -2.190742 25.456962 7.355616 -0.000000 
53.689499 -18.507919 108.330994 0.947228 0.712509 0.751727 0.020825 0.217006 0.055965 4.044286 0.434486 0.109694 5.689387 0.435769 0.104482 6.085664 13.623893 -3.280965 -6.789063 -15.932763 -4.022064 -16.941567 -63.864031 -20.080170 219.953115 -78.125999 212.870591 -0.000001 0.000017 -0.000000 62.874903 -7.153161 2.373105 0.000007 -0.000005 -2.999990 -5.000176 -7.998724 0.000161 -17.572190 63.202425 20.801599 9.462908 107.786061 -15.963651 -0.000000 0.000000 -0.000000 41.557880 6.974398 -0.284236 -0.000002 -0.000006 3.000011 -5.000155 7.999939 -0.000042 -24.897199 179.347831 1.971395 -179.999991 0.000005 -1.121007 133.577108 -2.318928 -2.508925 -0.000005 -0.000003 0.620403 67.078079 6.740613 2.630525 25.456964 -7.355618 0.000001 -25.735005 -183.483552 -2.007576 -0.000005 -0.000004 -1.405841 -59.375142 2.000523 2.672627 -0.000002 0.000000 -0.944695 68.839960 -6.879246 -2.196828 25.456957 7.355616 -0.000002 
53.693001 -18.485622 108.091003 0.887055 0.739011 0.778560 0.031392 0.216245 0.055168 4.065427 0.432966 0.108072 5.710526 0.434229 0.102878 6.016431 13.612435 -3.268501 -6.756444 -15.946110 -4.011995 -16.944724 -63.882875 -20.084064 220.329485 -77.924884 213.326615 0.000000 0.000018 0.000000 62.687572 -7.217934 2.411217 0.000002 -0.000005 -2.999989 -5.000175 -7.998724 0.000161 -17.598117 63.156697 20.831461 9.943921 107.904155 -16.377576 0.000001 0.000000 -0.000001 41.522206 7.016338 -0.295515 -0.000002 -0.000005 3.000011 -5.000152 7.999940 -0.000042 -24.316758 179.273696 1.805209 -179.999991 0.000005 -1.108002 134.973048 -2.415776 -2.476902 -0.000002 -0.000004 0.600440 67.044734 6.737205 2.640676 25.456967 -7.355618 0.000002 -25.256151 -183.570746 -1.847660 -0.000005 -0.000004 -1.379530 -58.071662 2.258617 2.730460 -0.000006 -0.000000 -0.909859 68.963443 -6.875139 -2.201182 25.456957 7.355617 -0.000002 
